<svg width="50" height="41" viewBox="0 0 50 41" fill="none" xmlns="http://www.w3.org/2000/svg">
<path d="M49 35.9091C49 37.0664 48.5403 38.1763 47.7219 38.9946C46.9036 39.813 45.7937 40.2727 44.6364 40.2727H5.36364C4.20633 40.2727 3.09642 39.813 2.27808 38.9946C1.45974 38.1763 1 37.0664 1 35.9091V11.9091C1 10.7518 1.45974 9.64187 2.27808 8.82353C3.09642 8.00519 4.20633 7.54545 5.36364 7.54545H14.0909L18.4545 1H31.5455L35.9091 7.54545H44.6364C45.7937 7.54545 46.9036 8.00519 47.7219 8.82353C48.5403 9.64187 49 10.7518 49 11.9091V35.9091Z" stroke="white" stroke-linecap="round" stroke-linejoin="round"/>
<path d="M25.0007 31.5465C29.8206 31.5465 33.728 27.6391 33.728 22.8192C33.728 17.9993 29.8206 14.0919 25.0007 14.0919C20.1808 14.0919 16.2734 17.9993 16.2734 22.8192C16.2734 27.6391 20.1808 31.5465 25.0007 31.5465Z" stroke="white" stroke-linecap="round" stroke-linejoin="round"/>
</svg>
