<svg xmlns="http://www.w3.org/2000/svg" width="31" height="30" viewBox="0 0 31 30" version="1.1"><path d="M 12.788 5.500 C 11.050 9.076, 10.078 10.003, 8.051 10.014 C 4.127 10.035, 1 11.106, 1 12.430 C 1 13.087, 2.385 14.948, 4.078 16.563 C 6.976 19.329, 7.118 19.806, 6.506 24.750 C 5.760 30.779, 6.395 31.155, 11.739 27.853 L 15.213 25.705 19.633 27.853 C 25.953 30.923, 26.239 30.771, 25.494 24.750 C 24.882 19.806, 25.024 19.329, 27.922 16.563 C 29.615 14.948, 31 13.087, 31 12.430 C 31 11.106, 27.873 10.035, 23.949 10.014 C 21.922 10.003, 20.950 9.076, 19.212 5.500 C 18.010 3.025, 16.564 1, 16 1 C 15.436 1, 13.990 3.025, 12.788 5.500" stroke="none" fill="#ff9c0c" fill-rule="evenodd"/><path d="" stroke="none" fill="#fc9c0c" fill-rule="evenodd"/></svg>