<svg xmlns="http://www.w3.org/2000/svg" width="39" height="37" viewBox="0 0 39 37" version="1.1"><path d="M 16.297 6.468 C 13.745 11.670, 13.394 11.965, 9.058 12.552 C -0.556 13.852, -1.219 15.123, 5.078 20.183 L 9.157 23.461 8.477 30.230 C 7.692 38.049, 7.826 38.135, 15.098 34.451 L 20.129 31.901 24.690 34.451 C 31.835 38.444, 32.318 38.146, 31.523 30.230 L 30.843 23.461 34.922 20.183 C 41.219 15.123, 40.556 13.852, 30.942 12.552 C 26.606 11.965, 26.255 11.670, 23.703 6.468 C 22.228 3.460, 20.562 1, 20 1 C 19.438 1, 17.772 3.460, 16.297 6.468 M 17.212 10.500 C 15.584 13.852, 14.449 15.003, 12.763 15.014 C 11.518 15.021, 9.458 15.306, 8.184 15.648 L 5.867 16.268 9.071 19.573 C 12.079 22.677, 12.233 23.186, 11.602 27.939 C 11.233 30.723, 11.190 33, 11.505 33 C 11.821 33, 13.862 32.091, 16.040 30.980 L 20 28.959 23.960 30.980 C 26.138 32.091, 28.179 33, 28.495 33 C 28.810 33, 28.767 30.723, 28.398 27.939 C 27.767 23.186, 27.921 22.677, 30.929 19.573 L 34.133 16.268 31.816 15.648 C 30.542 15.306, 28.482 15.021, 27.237 15.014 C 25.551 15.003, 24.416 13.852, 22.788 10.500 C 21.585 8.025, 20.331 6, 20 6 C 19.669 6, 18.415 8.025, 17.212 10.500" stroke="none" fill="#ff9c0c" fill-rule="evenodd"/><path d="" stroke="none" fill="#fc9c0c" fill-rule="evenodd"/></svg>